<svg width="45" height="38" viewBox="0 0 45 38" fill="none" xmlns="http://www.w3.org/2000/svg">
<path d="M35.3055 12.5085L35.0051 12.8131C35.9882 14.7268 36.4787 16.8532 36.4766 19.1922C36.4897 21.5877 35.8848 23.9451 34.7219 26.0305C33.5553 28.142 31.9768 29.7734 29.9864 30.9248C28.0316 32.0566 25.8929 32.6302 23.57 32.6456C23.5244 32.6456 23.4749 32.6456 23.4293 32.6456C22.6159 32.6469 21.804 32.5759 21.0029 32.4335C19.6136 32.1873 18.2746 31.7076 17.0412 31.0141C16.9846 30.9854 16.9319 30.9527 16.8753 30.9209C16.4045 30.6506 15.952 30.3488 15.5209 30.0174L34.0471 11.2391L38.0465 7.186L39.7265 5.48279L45 0.132365L44.8726 0H23.4434H23.3333C17.8697 0.0287057 13.3439 2.05459 9.75583 6.07764C6.474 9.7525 4.83282 14.0924 4.8323 19.0973C4.8323 22.4287 5.58918 25.4827 7.10294 28.2592L11.2384 24.069C10.6642 22.5093 10.3743 20.8569 10.3827 19.1922C10.3822 15.3982 11.6636 12.1651 14.2271 9.49282C16.767 6.84711 19.8027 5.51097 23.3341 5.48439H23.4293C25.254 5.48439 26.9515 5.83922 28.5219 6.54889C29.0847 6.80288 29.6274 7.10038 30.1452 7.43877L12.0194 25.8112L8.05462 29.8316L3.48187 34.4684L0 38H23.57C28.9623 37.9697 33.3788 36.0826 36.8195 32.3386C40.2849 28.5643 42.0189 24.1521 42.0215 19.1021C42.0215 15.2215 41.0431 11.7446 39.0863 8.67152L35.3055 12.5085Z" fill="#A3000E"/>
</svg>
