<svg width="195" height="272" viewBox="0 0 195 272" fill="none" xmlns="http://www.w3.org/2000/svg">
<g clip-path="url(#clip0_1042_2801)">
<circle opacity="0.1" cx="136" cy="136" r="136" fill="#A31D21"/>
<path d="M176.1 115.846L175.159 116.792C178.238 122.733 179.774 129.335 179.767 136.596C179.808 144.034 177.914 151.352 174.272 157.827C170.619 164.382 165.676 169.447 159.443 173.022C153.322 176.536 146.624 178.316 139.351 178.364C139.208 178.364 139.053 178.364 138.91 178.364C136.363 178.368 133.82 178.148 131.312 177.706C126.961 176.941 122.768 175.452 118.906 173.299C118.729 173.21 118.564 173.109 118.386 173.009C116.912 172.17 115.495 171.233 114.145 170.205L172.159 111.905L184.683 99.3216L189.944 94.0338L206.458 77.4227L206.059 77.0117H138.954H138.609C121.5 77.1008 107.328 83.3904 96.092 95.8805C85.8151 107.29 80.6758 120.763 80.6741 136.302C80.6741 146.645 83.0443 156.126 87.7846 164.746L100.735 151.737C98.9366 146.895 98.0286 141.765 98.0549 136.596C98.0533 124.818 102.066 114.78 110.094 106.483C118.047 98.2695 127.553 94.1212 138.612 94.0387H138.91C144.624 94.0387 149.94 95.1403 154.857 97.3436C156.62 98.1321 158.319 99.0558 159.941 100.106L103.18 157.146L90.7647 169.628L76.4453 184.023L65.542 194.988H139.351C156.236 194.894 170.066 189.035 180.841 177.411C191.692 165.693 197.122 151.995 197.131 136.317C197.131 124.269 194.067 113.474 187.939 103.934L176.1 115.846Z" fill="#A3000E"/>
</g>
<defs>
<clipPath id="clip0_1042_2801">
<rect width="272" height="272" fill="white"/>
</clipPath>
</defs>
</svg>
